<?xml version="1.0" standalone="no"?>
<!DOCTYPE svg PUBLIC "-//W3C//DTD SVG 1.1//EN" "http://www.w3.org/Graphics/SVG/1.1/DTD/svg11.dtd">
<svg version="1.1" xmlns="http://www.w3.org/2000/svg" viewBox="0 0 1438 931" width="2876" height="1862"><!-- svg-source:excalidraw --><metadata></metadata><defs><style class="style-fonts">
      </style></defs><rect x="0" y="0" width="1438" height="931" fill="#ffffff"></rect><g transform="translate(240 10) rotate(0 220 18)"><text x="220" y="23.2705078125" font-family="Helvetica, sans-serif, Segoe UI Emoji" font-size="26px" fill="#1e1e1e" text-anchor="middle" style="white-space: pre;" direction="ltr" dominant-baseline="alphabetic">Cadre — Production Infrastructure</text></g><g transform="translate(300 45) rotate(0 160 9)"><text x="160" y="10.740234375" font-family="Helvetica, sans-serif, Segoe UI Emoji" font-size="12px" fill="#868e96" text-anchor="middle" style="white-space: pre;" direction="ltr" dominant-baseline="alphabetic">graph-based AI agent orchestrator</text></g><g stroke-linecap="round" transform="translate(350 95) rotate(0 110 26)"><path d="M13 0 C84.21 0, 155.42 0, 207 0 C215.67 0, 220 4.33, 220 13 C220 22.89, 220 32.78, 220 39 C220 47.67, 215.67 52, 207 52 C141.39 52, 75.78 52, 13 52 C4.33 52, 0 47.67, 0 39 C0 31.49, 0 23.99, 0 13 C0 4.33, 4.33 0, 13 0" stroke="none" stroke-width="0" fill="#228be6"></path><path d="M13 0 C78.93 0, 144.87 0, 207 0 M13 0 C70.35 0, 127.69 0, 207 0 M207 0 C215.67 0, 220 4.33, 220 13 M207 0 C215.67 0, 220 4.33, 220 13 M220 13 C220 22.02, 220 31.03, 220 39 M220 13 C220 21.67, 220 30.34, 220 39 M220 39 C220 47.67, 215.67 52, 207 52 M220 39 C220 47.67, 215.67 52, 207 52 M207 52 C135.08 52, 63.15 52, 13 52 M207 52 C130.02 52, 53.03 52, 13 52 M13 52 C4.33 52, 0 47.67, 0 39 M13 52 C4.33 52, 0 47.67, 0 39 M0 39 C0 33.33, 0 27.65, 0 13 M0 39 C0 29.91, 0 20.81, 0 13 M0 13 C0 4.33, 4.33 0, 13 0 M0 13 C0 4.33, 4.33 0, 13 0" stroke="#228be6" stroke-width="2" fill="none"></path></g><g transform="translate(360 111) rotate(0 100 10)"><text x="100" y="14.3203125" font-family="Helvetica, sans-serif, Segoe UI Emoji" font-size="16px" fill="#ffffff" text-anchor="middle" style="white-space: pre;" direction="ltr" dominant-baseline="alphabetic">🌐  Users / Browser</text></g><g stroke-linecap="round" transform="translate(360 195) rotate(0 100 23)"><path d="M11.5 0 C74.45 0, 137.4 0, 188.5 0 C196.17 0, 200 3.83, 200 11.5 C200 17.39, 200 23.28, 200 34.5 C200 42.17, 196.17 46, 188.5 46 C123.18 46, 57.86 46, 11.5 46 C3.83 46, 0 42.17, 0 34.5 C0 28.1, 0 21.7, 0 11.5 C0 3.83, 3.83 0, 11.5 0" stroke="none" stroke-width="0" fill="#e8590c"></path><path d="M11.5 0 C58.65 0, 105.81 0, 188.5 0 M11.5 0 C62.11 0, 112.72 0, 188.5 0 M188.5 0 C196.17 0, 200 3.83, 200 11.5 M188.5 0 C196.17 0, 200 3.83, 200 11.5 M200 11.5 C200 17.66, 200 23.83, 200 34.5 M200 11.5 C200 19.89, 200 28.28, 200 34.5 M200 34.5 C200 42.17, 196.17 46, 188.5 46 M200 34.5 C200 42.17, 196.17 46, 188.5 46 M188.5 46 C142.34 46, 96.18 46, 11.5 46 M188.5 46 C147.52 46, 106.55 46, 11.5 46 M11.5 46 C3.83 46, 0 42.17, 0 34.5 M11.5 46 C3.83 46, 0 42.17, 0 34.5 M0 34.5 C0 25.95, 0 17.39, 0 11.5 M0 34.5 C0 28.6, 0 22.7, 0 11.5 M0 11.5 C0 3.83, 3.83 0, 11.5 0 M0 11.5 C0 3.83, 3.83 0, 11.5 0" stroke="#e8590c" stroke-width="2" fill="none"></path></g><g transform="translate(370 208.625) rotate(0 90 9.375)"><text x="90" y="13.42529296875" font-family="Helvetica, sans-serif, Segoe UI Emoji" font-size="15px" fill="#ffffff" text-anchor="middle" style="white-space: pre;" direction="ltr" dominant-baseline="alphabetic">🌍  Route 53</text></g><g stroke-linecap="round"><g transform="translate(460 147) rotate(0 0 24)"><path d="M0 0 C0 8, 0 40, 0 48 M0 0 C0 8, 0 40, 0 48" stroke="#adb5bd" stroke-width="1.5" fill="none"></path></g><g transform="translate(460 147) rotate(0 0 24)"><path d="M0 48 L-6.34 34.41 L6.34 34.41 L0 48" stroke="none" stroke-width="0" fill="#adb5bd" fill-rule="evenodd"></path><path d="M0 48 C-1.37 45.07, -2.73 42.14, -6.34 34.41 M0 48 C-1.71 44.33, -3.42 40.66, -6.34 34.41 M-6.34 34.41 C-3.67 34.41, -1 34.41, 6.34 34.41 M-6.34 34.41 C-2.57 34.41, 1.2 34.41, 6.34 34.41 M6.34 34.41 C4.41 38.54, 2.48 42.68, 0 48 M6.34 34.41 C4.01 39.4, 1.68 44.4, 0 48 M0 48 C0 48, 0 48, 0 48 M0 48 C0 48, 0 48, 0 48" stroke="#adb5bd" stroke-width="1.5" fill="none"></path></g></g><mask></mask><g stroke-linecap="round" transform="translate(10 291) rotate(0 490 296)"><path d="M32 0 C349.85 0, 667.69 0, 948 0 C969.33 0, 980 10.67, 980 32 C980 154.5, 980 277, 980 560 C980 581.33, 969.33 592, 948 592 C728.73 592, 509.47 592, 32 592 C10.67 592, 0 581.33, 0 560 C0 354.87, 0 149.75, 0 32 C0 10.67, 10.67 0, 32 0" stroke="none" stroke-width="0" fill="#FFFDF8"></path><path d="M32 0 C280.43 0, 528.87 0, 948 0 M32 0 C252.21 0, 472.42 0, 948 0 M948 0 C969.33 0, 980 10.67, 980 32 M948 0 C969.33 0, 980 10.67, 980 32 M980 32 C980 215.91, 980 399.81, 980 560 M980 32 C980 231.97, 980 431.94, 980 560 M980 560 C980 581.33, 969.33 592, 948 592 M980 560 C980 581.33, 969.33 592, 948 592 M948 592 C657.26 592, 366.52 592, 32 592 M948 592 C663.18 592, 378.35 592, 32 592 M32 592 C10.67 592, 0 581.33, 0 560 M32 592 C10.67 592, 0 581.33, 0 560 M0 560 C0 449.32, 0 338.65, 0 32 M0 560 C0 362.37, 0 164.73, 0 32 M0 32 C0 10.67, 10.67 0, 32 0 M0 32 C0 10.67, 10.67 0, 32 0" stroke="#FF9900" stroke-width="3" fill="none"></path></g><g transform="translate(28 299) rotate(0 150 10)"><text x="0" y="12.5302734375" font-family="Helvetica, sans-serif, Segoe UI Emoji" font-size="14px" fill="#FF9900" text-anchor="start" style="white-space: pre;" direction="ltr" dominant-baseline="alphabetic">☁️  AWS Cloud  ·  us-east-1</text></g><g stroke-linecap="round"><g transform="translate(460 241) rotate(0 0 50)"><path d="M0 0 C0 16.67, 0 83.33, 0 100 M0 0 C0 16.67, 0 83.33, 0 100" stroke="#adb5bd" stroke-width="1.5" fill="none"></path></g><g transform="translate(460 241) rotate(0 0 50)"><path d="M0 100 L-6.34 86.41 L6.34 86.41 L0 100" stroke="none" stroke-width="0" fill="#adb5bd" fill-rule="evenodd"></path><path d="M0 100 C-1.49 96.81, -2.97 93.63, -6.34 86.41 M0 100 C-1.41 96.98, -2.82 93.96, -6.34 86.41 M-6.34 86.41 C-1.43 86.41, 3.48 86.41, 6.34 86.41 M-6.34 86.41 C-3.71 86.41, -1.09 86.41, 6.34 86.41 M6.34 86.41 C4.51 90.32, 2.69 94.23, 0 100 M6.34 86.41 C3.94 91.55, 1.54 96.69, 0 100 M0 100 C0 100, 0 100, 0 100 M0 100 C0 100, 0 100, 0 100" stroke="#adb5bd" stroke-width="1.5" fill="none"></path></g></g><mask></mask><g stroke-linecap="round" transform="translate(315 341) rotate(0 145 24)"><path d="M12 0 C78.68 0, 145.35 0, 278 0 C286 0, 290 4, 290 12 C290 21.34, 290 30.68, 290 36 C290 44, 286 48, 278 48 C172.65 48, 67.3 48, 12 48 C4 48, 0 44, 0 36 C0 28.74, 0 21.48, 0 12 C0 4, 4 0, 12 0" stroke="none" stroke-width="0" fill="#7048e8"></path><path d="M12 0 C70.27 0, 128.53 0, 278 0 M12 0 C104.12 0, 196.25 0, 278 0 M278 0 C286 0, 290 4, 290 12 M278 0 C286 0, 290 4, 290 12 M290 12 C290 19.65, 290 27.29, 290 36 M290 12 C290 21.27, 290 30.55, 290 36 M290 36 C290 44, 286 48, 278 48 M290 36 C290 44, 286 48, 278 48 M278 48 C176.64 48, 75.28 48, 12 48 M278 48 C211.17 48, 144.35 48, 12 48 M12 48 C4 48, 0 44, 0 36 M12 48 C4 48, 0 44, 0 36 M0 36 C0 26.86, 0 17.71, 0 12 M0 36 C0 27.77, 0 19.54, 0 12 M0 12 C0 4, 4 0, 12 0 M0 12 C0 4, 4 0, 12 0" stroke="#7048e8" stroke-width="2" fill="none"></path></g><g transform="translate(325 356.25) rotate(0 135 8.75)"><text x="135" y="12.5302734375" font-family="Helvetica, sans-serif, Segoe UI Emoji" font-size="14px" fill="#ffffff" text-anchor="middle" style="white-space: pre;" direction="ltr" dominant-baseline="alphabetic">⚖️  ALB  ·  HTTPS :443</text></g><g stroke-linecap="round" transform="translate(65 419) rotate(0 435 155)"><path d="M32 0 C277.51 0, 523.03 0, 838 0 C859.33 0, 870 10.67, 870 32 C870 129.97, 870 227.95, 870 278 C870 299.33, 859.33 310, 838 310 C550.5 310, 263 310, 32 310 C10.67 310, 0 299.33, 0 278 C0 188.51, 0 99.02, 0 32 C0 10.67, 10.67 0, 32 0" stroke="none" stroke-width="0" fill="#e7f5ff"></path><path d="M32 0 C228.93 0, 425.85 0, 838 0 M838 0 C859.33 0, 870 10.67, 870 32 M870 32 C870 127.97, 870 223.93, 870 278 M870 278 C870 299.33, 859.33 310, 838 310 M838 310 C518.33 310, 198.65 310, 32 310 M32 310 C10.67 310, 0 299.33, 0 278 M0 278 C0 181.46, 0 84.92, 0 32 M0 32 C0 10.67, 10.67 0, 32 0" stroke="#1864ab" stroke-width="2.5" fill="none" stroke-dasharray="8 10"></path></g><g transform="translate(80 425) rotate(0 100 9)"><text x="0" y="11.63525390625" font-family="Helvetica, sans-serif, Segoe UI Emoji" font-size="13px" fill="#1864ab" text-anchor="start" style="white-space: pre;" direction="ltr" dominant-baseline="alphabetic">☸️  Amazon EKS</text></g><g stroke-opacity="0.6" fill-opacity="0.6" stroke-linecap="round" transform="translate(85 447) rotate(0 415 121)"><path d="M32 0 C314.16 0, 596.32 0, 798 0 C819.33 0, 830 10.67, 830 32 C830 95.14, 830 158.27, 830 210 C830 231.33, 819.33 242, 798 242 C574.23 242, 350.46 242, 32 242 C10.67 242, 0 231.33, 0 210 C0 150.36, 0 90.72, 0 32 C0 10.67, 10.67 0, 32 0" stroke="none" stroke-width="0" fill="#f8f9fa"></path><path d="M32 0 C242.69 0, 453.38 0, 798 0 M798 0 C819.33 0, 830 10.67, 830 32 M830 32 C830 87.92, 830 143.85, 830 210 M830 210 C830 231.33, 819.33 242, 798 242 M798 242 C563.35 242, 328.7 242, 32 242 M32 242 C10.67 242, 0 231.33, 0 210 M0 210 C0 167.55, 0 125.1, 0 32 M0 32 C0 10.67, 10.67 0, 32 0" stroke="#495057" stroke-width="1.5" fill="none" stroke-dasharray="8 9"></path></g><g transform="translate(100 453) rotate(0 100 7)"><text x="0" y="8.9501953125" font-family="Helvetica, sans-serif, Segoe UI Emoji" font-size="10px" fill="#868e96" text-anchor="start" style="white-space: pre;" direction="ltr" dominant-baseline="alphabetic">namespace: cadre</text></g><g stroke-linecap="round" transform="translate(257 475) rotate(0 57.5 18)"><path d="M9 0 C45.61 0, 82.22 0, 106 0 C112 0, 115 3, 115 9 C115 14.45, 115 19.9, 115 27 C115 33, 112 36, 106 36 C72.9 36, 39.8 36, 9 36 C3 36, 0 33, 0 27 C0 23.23, 0 19.45, 0 9 C0 3, 3 0, 9 0" stroke="none" stroke-width="0" fill="#FFF3E0"></path><path d="M9 0 C32.11 0, 55.23 0, 106 0 M9 0 C29.11 0, 49.22 0, 106 0 M106 0 C112 0, 115 3, 115 9 M106 0 C112 0, 115 3, 115 9 M115 9 C115 14.66, 115 20.33, 115 27 M115 9 C115 15.16, 115 21.31, 115 27 M115 27 C115 33, 112 36, 106 36 M115 27 C115 33, 112 36, 106 36 M106 36 C69.96 36, 33.93 36, 9 36 M106 36 C73.09 36, 40.17 36, 9 36 M9 36 C3 36, 0 33, 0 27 M9 36 C3 36, 0 33, 0 27 M0 27 C0 22.85, 0 18.7, 0 9 M0 27 C0 22.07, 0 17.14, 0 9 M0 9 C0 3, 3 0, 9 0 M0 9 C0 3, 3 0, 9 0" stroke="#EF6C00" stroke-width="1.5" fill="none"></path></g><g transform="translate(263 485.5) rotate(0 51.5 7.5)"><text x="51.5" y="10.740234375" font-family="Helvetica, sans-serif, Segoe UI Emoji" font-size="12px" fill="#EF6C00" text-anchor="middle" style="white-space: pre;" direction="ltr" dominant-baseline="alphabetic">🌐 Ingress</text></g><g stroke-linecap="round" transform="translate(390 475) rotate(0 70 18)"><path d="M9 0 C56.97 0, 104.94 0, 131 0 C137 0, 140 3, 140 9 C140 13.73, 140 18.46, 140 27 C140 33, 137 36, 131 36 C98.79 36, 66.58 36, 9 36 C3 36, 0 33, 0 27 C0 22.66, 0 18.32, 0 9 C0 3, 3 0, 9 0" stroke="none" stroke-width="0" fill="#E0F2F1"></path><path d="M9 0 C56.64 0, 104.29 0, 131 0 M9 0 C56.65 0, 104.29 0, 131 0 M131 0 C137 0, 140 3, 140 9 M131 0 C137 0, 140 3, 140 9 M140 9 C140 12.96, 140 16.93, 140 27 M140 9 C140 13.13, 140 17.25, 140 27 M140 27 C140 33, 137 36, 131 36 M140 27 C140 33, 137 36, 131 36 M131 36 C83.34 36, 35.69 36, 9 36 M131 36 C99.79 36, 68.58 36, 9 36 M9 36 C3 36, 0 33, 0 27 M9 36 C3 36, 0 33, 0 27 M0 27 C0 20.75, 0 14.51, 0 9 M0 27 C0 20.21, 0 13.43, 0 9 M0 9 C0 3, 3 0, 9 0 M0 9 C0 3, 3 0, 9 0" stroke="#00897B" stroke-width="1.5" fill="none"></path></g><g transform="translate(396 485.5) rotate(0 64 7.5)"><text x="64" y="10.740234375" font-family="Helvetica, sans-serif, Segoe UI Emoji" font-size="12px" fill="#00897B" text-anchor="middle" style="white-space: pre;" direction="ltr" dominant-baseline="alphabetic">🔀 Service :3000</text></g><g stroke-linecap="round" transform="translate(548 475) rotate(0 72.5 18)"><path d="M9 0 C34.61 0, 60.23 0, 136 0 C142 0, 145 3, 145 9 C145 14.86, 145 20.73, 145 27 C145 33, 142 36, 136 36 C104.5 36, 73 36, 9 36 C3 36, 0 33, 0 27 C0 20.93, 0 14.87, 0 9 C0 3, 3 0, 9 0" stroke="none" stroke-width="0" fill="#E3F2FD"></path><path d="M9 0 C50.65 0, 92.29 0, 136 0 M9 0 C53.19 0, 97.39 0, 136 0 M136 0 C142 0, 145 3, 145 9 M136 0 C142 0, 145 3, 145 9 M145 9 C145 14.86, 145 20.73, 145 27 M145 9 C145 16.01, 145 23.02, 145 27 M145 27 C145 33, 142 36, 136 36 M145 27 C145 33, 142 36, 136 36 M136 36 C102.97 36, 69.95 36, 9 36 M136 36 C85.7 36, 35.41 36, 9 36 M9 36 C3 36, 0 33, 0 27 M9 36 C3 36, 0 33, 0 27 M0 27 C0 19.99, 0 12.97, 0 9 M0 27 C0 23.12, 0 19.24, 0 9 M0 9 C0 3, 3 0, 9 0 M0 9 C0 3, 3 0, 9 0" stroke="#1565C0" stroke-width="1.5" fill="none"></path></g><g transform="translate(554 485.5) rotate(0 66.5 7.5)"><text x="66.5" y="10.740234375" font-family="Helvetica, sans-serif, Segoe UI Emoji" font-size="12px" fill="#1565C0" text-anchor="middle" style="white-space: pre;" direction="ltr" dominant-baseline="alphabetic">🚀 Deployment</text></g><g stroke-linecap="round"><g transform="translate(460 389) rotate(0 0 43)"><path d="M0 0 C0 14.33, 0 71.67, 0 86 M0 0 C0 14.33, 0 71.67, 0 86" stroke="#7048e8" stroke-width="1.5" fill="none"></path></g><g transform="translate(460 389) rotate(0 0 43)"><path d="M0 86 L-6.34 72.41 L6.34 72.41 L0 86" stroke="none" stroke-width="0" fill="#7048e8" fill-rule="evenodd"></path><path d="M0 86 C-2.08 81.53, -4.16 77.07, -6.34 72.41 M0 86 C-1.42 82.96, -2.83 79.92, -6.34 72.41 M-6.34 72.41 C-1.67 72.41, 3.01 72.41, 6.34 72.41 M-6.34 72.41 C-2.54 72.41, 1.27 72.41, 6.34 72.41 M6.34 72.41 C3.89 77.65, 1.45 82.89, 0 86 M6.34 72.41 C4.73 75.86, 3.12 79.31, 0 86 M0 86 C0 86, 0 86, 0 86 M0 86 C0 86, 0 86, 0 86" stroke="#7048e8" stroke-width="1.5" fill="none"></path></g></g><mask></mask><g stroke-linecap="round"><g transform="translate(372 493) rotate(0 9 0)"><path d="M0 0 C3 0, 15 0, 18 0 M0 0 C3 0, 15 0, 18 0" stroke="#EF6C00" stroke-width="1" fill="none"></path></g><g transform="translate(372 493) rotate(0 9 0)"><path d="M18 0 L9.84 3.8 L9.84 -3.8 L18 0" stroke="none" stroke-width="0" fill="#EF6C00" fill-rule="evenodd"></path><path d="M18 0 C15.09 1.36, 12.17 2.72, 9.84 3.8 M18 0 C15.06 1.37, 12.12 2.74, 9.84 3.8 M9.84 3.8 C9.84 1.64, 9.84 -0.53, 9.84 -3.8 M9.84 3.8 C9.84 1.37, 9.84 -1.07, 9.84 -3.8 M9.84 -3.8 C12.24 -2.69, 14.63 -1.57, 18 0 M9.84 -3.8 C11.51 -3.03, 13.17 -2.25, 18 0 M18 0 C18 0, 18 0, 18 0 M18 0 C18 0, 18 0, 18 0" stroke="#EF6C00" stroke-width="1" fill="none"></path></g></g><mask></mask><g stroke-linecap="round"><g transform="translate(530 493) rotate(0 9 0)"><path d="M0 0 C3 0, 15 0, 18 0 M0 0 C3 0, 15 0, 18 0" stroke="#00897B" stroke-width="1" fill="none"></path></g><g transform="translate(530 493) rotate(0 9 0)"><path d="M18 0 L9.84 3.8 L9.84 -3.8 L18 0" stroke="none" stroke-width="0" fill="#00897B" fill-rule="evenodd"></path><path d="M18 0 C15.38 1.22, 12.76 2.44, 9.84 3.8 M18 0 C14.8 1.49, 11.59 2.99, 9.84 3.8 M9.84 3.8 C9.84 1.03, 9.84 -1.75, 9.84 -3.8 M9.84 3.8 C9.84 1.61, 9.84 -0.58, 9.84 -3.8 M9.84 -3.8 C12.27 -2.67, 14.7 -1.54, 18 0 M9.84 -3.8 C12.93 -2.36, 16.02 -0.92, 18 0 M18 0 C18 0, 18 0, 18 0 M18 0 C18 0, 18 0, 18 0" stroke="#00897B" stroke-width="1" fill="none"></path></g></g><mask></mask><g stroke-linecap="round" transform="translate(240 549) rotate(0 110 41)"><path d="M20.5 0 C76.1 0, 131.7 0, 199.5 0 C213.17 0, 220 6.83, 220 20.5 C220 29.45, 220 38.41, 220 61.5 C220 75.17, 213.17 82, 199.5 82 C152.83 82, 106.16 82, 20.5 82 C6.83 82, 0 75.17, 0 61.5 C0 46.37, 0 31.25, 0 20.5 C0 6.83, 6.83 0, 20.5 0" stroke="none" stroke-width="0" fill="#364fc7"></path><path d="M20.5 0 C77.95 0, 135.4 0, 199.5 0 M20.5 0 C87.89 0, 155.28 0, 199.5 0 M199.5 0 C213.17 0, 220 6.83, 220 20.5 M199.5 0 C213.17 0, 220 6.83, 220 20.5 M220 20.5 C220 34.88, 220 49.25, 220 61.5 M220 20.5 C220 31.93, 220 43.36, 220 61.5 M220 61.5 C220 75.17, 213.17 82, 199.5 82 M220 61.5 C220 75.17, 213.17 82, 199.5 82 M199.5 82 C139.48 82, 79.47 82, 20.5 82 M199.5 82 C151.78 82, 104.06 82, 20.5 82 M20.5 82 C6.83 82, 0 75.17, 0 61.5 M20.5 82 C6.83 82, 0 75.17, 0 61.5 M0 61.5 C0 49.17, 0 36.84, 0 20.5 M0 61.5 C0 45.71, 0 29.91, 0 20.5 M0 20.5 C0 6.83, 6.83 0, 20.5 0 M0 20.5 C0 6.83, 6.83 0, 20.5 0" stroke="#364fc7" stroke-width="2" fill="none"></path></g><g transform="translate(250 565.625) rotate(0 100 24.375)"><text x="100" y="11.63525390625" font-family="Helvetica, sans-serif, Segoe UI Emoji" font-size="13px" fill="#ffffff" text-anchor="middle" style="white-space: pre;" direction="ltr" dominant-baseline="alphabetic">📦  Cadre Pod</text><text x="100" y="27.88525390625" font-family="Helvetica, sans-serif, Segoe UI Emoji" font-size="13px" fill="#ffffff" text-anchor="middle" style="white-space: pre;" direction="ltr" dominant-baseline="alphabetic">Next.js :3000</text><text x="100" y="44.13525390625" font-family="Helvetica, sans-serif, Segoe UI Emoji" font-size="13px" fill="#ffffff" text-anchor="middle" style="white-space: pre;" direction="ltr" dominant-baseline="alphabetic">/api/health</text></g><g stroke-linecap="round" transform="translate(520 549) rotate(0 110 41)"><path d="M20.5 0 C59.98 0, 99.45 0, 199.5 0 C213.17 0, 220 6.83, 220 20.5 C220 33.47, 220 46.44, 220 61.5 C220 75.17, 213.17 82, 199.5 82 C146.27 82, 93.04 82, 20.5 82 C6.83 82, 0 75.17, 0 61.5 C0 47.57, 0 33.64, 0 20.5 C0 6.83, 6.83 0, 20.5 0" stroke="none" stroke-width="0" fill="#364fc7"></path><path d="M20.5 0 C89.13 0, 157.75 0, 199.5 0 M20.5 0 C60.92 0, 101.34 0, 199.5 0 M199.5 0 C213.17 0, 220 6.83, 220 20.5 M199.5 0 C213.17 0, 220 6.83, 220 20.5 M220 20.5 C220 31.8, 220 43.1, 220 61.5 M220 20.5 C220 35.32, 220 50.14, 220 61.5 M220 61.5 C220 75.17, 213.17 82, 199.5 82 M220 61.5 C220 75.17, 213.17 82, 199.5 82 M199.5 82 C140.03 82, 80.56 82, 20.5 82 M199.5 82 C162.64 82, 125.79 82, 20.5 82 M20.5 82 C6.83 82, 0 75.17, 0 61.5 M20.5 82 C6.83 82, 0 75.17, 0 61.5 M0 61.5 C0 48.01, 0 34.53, 0 20.5 M0 61.5 C0 51.22, 0 40.95, 0 20.5 M0 20.5 C0 6.83, 6.83 0, 20.5 0 M0 20.5 C0 6.83, 6.83 0, 20.5 0" stroke="#364fc7" stroke-width="2" fill="none"></path></g><g transform="translate(530 565.625) rotate(0 100 24.375)"><text x="100" y="11.63525390625" font-family="Helvetica, sans-serif, Segoe UI Emoji" font-size="13px" fill="#ffffff" text-anchor="middle" style="white-space: pre;" direction="ltr" dominant-baseline="alphabetic">📦  Cadre Pod</text><text x="100" y="27.88525390625" font-family="Helvetica, sans-serif, Segoe UI Emoji" font-size="13px" fill="#ffffff" text-anchor="middle" style="white-space: pre;" direction="ltr" dominant-baseline="alphabetic">Next.js :3000</text><text x="100" y="44.13525390625" font-family="Helvetica, sans-serif, Segoe UI Emoji" font-size="13px" fill="#ffffff" text-anchor="middle" style="white-space: pre;" direction="ltr" dominant-baseline="alphabetic">/api/health</text></g><g stroke-linecap="round"><g transform="translate(620 511) rotate(0 -135 19)"><path d="M0 0 C-45 6.33, -225 31.67, -270 38 M0 0 C-45 6.33, -225 31.67, -270 38" stroke="#1565C0" stroke-width="1" fill="none"></path></g><g transform="translate(620 511) rotate(0 -135 19)"><path d="M-270 38 L-257.42 29.83 L-255.65 42.38 L-270 38" stroke="none" stroke-width="0" fill="#1565C0" fill-rule="evenodd"></path><path d="M-270 38 C-265.7 35.21, -261.4 32.41, -257.42 29.83 M-270 38 C-265.66 35.18, -261.33 32.37, -257.42 29.83 M-257.42 29.83 C-257.05 32.44, -256.69 35.04, -255.65 42.38 M-257.42 29.83 C-256.74 34.64, -256.07 39.45, -255.65 42.38 M-255.65 42.38 C-258.7 41.45, -261.74 40.52, -270 38 M-255.65 42.38 C-259.87 41.09, -264.09 39.81, -270 38 M-270 38 C-270 38, -270 38, -270 38 M-270 38 C-270 38, -270 38, -270 38" stroke="#1565C0" stroke-width="1" fill="none"></path></g></g><mask></mask><g stroke-linecap="round"><g transform="translate(620 511) rotate(0 5 19)"><path d="M0 0 C1.67 6.33, 8.33 31.67, 10 38 M0 0 C1.67 6.33, 8.33 31.67, 10 38" stroke="#1565C0" stroke-width="1" fill="none"></path></g><g transform="translate(620 511) rotate(0 5 19)"><path d="M10 38 L0.41 26.47 L12.67 23.24 L10 38" stroke="none" stroke-width="0" fill="#1565C0" fill-rule="evenodd"></path><path d="M10 38 C6.81 34.16, 3.62 30.32, 0.41 26.47 M10 38 C6.85 34.21, 3.7 30.42, 0.41 26.47 M0.41 26.47 C2.9 25.81, 5.39 25.16, 12.67 23.24 M0.41 26.47 C3.28 25.71, 6.15 24.96, 12.67 23.24 M12.67 23.24 C11.77 28.19, 10.88 33.15, 10 38 M12.67 23.24 C11.66 28.82, 10.65 34.41, 10 38 M10 38 C10 38, 10 38, 10 38 M10 38 C10 38, 10 38, 10 38" stroke="#1565C0" stroke-width="1" fill="none"></path></g></g><mask></mask><g stroke-linecap="round" transform="translate(125 647) rotate(0 59 13)"><path d="M6.5 0 C43.49 0, 80.47 0, 111.5 0 C115.83 0, 118 2.17, 118 6.5 C118 10.1, 118 13.71, 118 19.5 C118 23.83, 115.83 26, 111.5 26 C72.33 26, 33.15 26, 6.5 26 C2.17 26, 0 23.83, 0 19.5 C0 15.28, 0 11.06, 0 6.5 C0 2.17, 2.17 0, 6.5 0" stroke="none" stroke-width="0" fill="#F3E5F5"></path><path d="M6.5 0 C41.33 0, 76.16 0, 111.5 0 M6.5 0 C45.87 0, 85.25 0, 111.5 0 M111.5 0 C115.83 0, 118 2.17, 118 6.5 M111.5 0 C115.83 0, 118 2.17, 118 6.5 M118 6.5 C118 11.55, 118 16.61, 118 19.5 M118 6.5 C118 11.31, 118 16.12, 118 19.5 M118 19.5 C118 23.83, 115.83 26, 111.5 26 M118 19.5 C118 23.83, 115.83 26, 111.5 26 M111.5 26 C77.12 26, 42.73 26, 6.5 26 M111.5 26 C77.35 26, 43.2 26, 6.5 26 M6.5 26 C2.17 26, 0 23.83, 0 19.5 M6.5 26 C2.17 26, 0 23.83, 0 19.5 M0 19.5 C0 16.76, 0 14.02, 0 6.5 M0 19.5 C0 15.89, 0 12.27, 0 6.5 M0 6.5 C0 2.17, 2.17 0, 6.5 0 M0 6.5 C0 2.17, 2.17 0, 6.5 0" stroke="#7B1FA2" stroke-width="1" fill="none"></path></g><g transform="translate(129 653.75) rotate(0 55 6.25)"><text x="55" y="8.9501953125" font-family="Helvetica, sans-serif, Segoe UI Emoji" font-size="10px" fill="#7B1FA2" text-anchor="middle" style="white-space: pre;" direction="ltr" dominant-baseline="alphabetic">⚙️ ConfigMap</text></g><g stroke-linecap="round" transform="translate(256 647) rotate(0 50 13)"><path d="M6.5 0 C39.52 0, 72.54 0, 93.5 0 C97.83 0, 100 2.17, 100 6.5 C100 10.26, 100 14.02, 100 19.5 C100 23.83, 97.83 26, 93.5 26 C64.2 26, 34.9 26, 6.5 26 C2.17 26, 0 23.83, 0 19.5 C0 15.83, 0 12.16, 0 6.5 C0 2.17, 2.17 0, 6.5 0" stroke="none" stroke-width="0" fill="#FFEBEE"></path><path d="M6.5 0 C28.95 0, 51.41 0, 93.5 0 M6.5 0 C31.87 0, 57.24 0, 93.5 0 M93.5 0 C97.83 0, 100 2.17, 100 6.5 M93.5 0 C97.83 0, 100 2.17, 100 6.5 M100 6.5 C100 9.32, 100 12.15, 100 19.5 M100 6.5 C100 10.05, 100 13.61, 100 19.5 M100 19.5 C100 23.83, 97.83 26, 93.5 26 M100 19.5 C100 23.83, 97.83 26, 93.5 26 M93.5 26 C60.99 26, 28.49 26, 6.5 26 M93.5 26 C66.47 26, 39.45 26, 6.5 26 M6.5 26 C2.17 26, 0 23.83, 0 19.5 M6.5 26 C2.17 26, 0 23.83, 0 19.5 M0 19.5 C0 15.98, 0 12.46, 0 6.5 M0 19.5 C0 16.67, 0 13.85, 0 6.5 M0 6.5 C0 2.17, 2.17 0, 6.5 0 M0 6.5 C0 2.17, 2.17 0, 6.5 0" stroke="#C62828" stroke-width="1" fill="none"></path></g><g transform="translate(260 653.75) rotate(0 46 6.25)"><text x="46" y="8.9501953125" font-family="Helvetica, sans-serif, Segoe UI Emoji" font-size="10px" fill="#C62828" text-anchor="middle" style="white-space: pre;" direction="ltr" dominant-baseline="alphabetic">🔒 Secret</text></g><g stroke-linecap="round" transform="translate(369 647) rotate(0 50 13)"><path d="M6.5 0 C32.67 0, 58.84 0, 93.5 0 C97.83 0, 100 2.17, 100 6.5 C100 9.51, 100 12.52, 100 19.5 C100 23.83, 97.83 26, 93.5 26 C73.37 26, 53.24 26, 6.5 26 C2.17 26, 0 23.83, 0 19.5 C0 16, 0 12.51, 0 6.5 C0 2.17, 2.17 0, 6.5 0" stroke="none" stroke-width="0" fill="#E8F5E9"></path><path d="M6.5 0 C27.14 0, 47.78 0, 93.5 0 M6.5 0 C29.81 0, 53.12 0, 93.5 0 M93.5 0 C97.83 0, 100 2.17, 100 6.5 M93.5 0 C97.83 0, 100 2.17, 100 6.5 M100 6.5 C100 10.74, 100 14.99, 100 19.5 M100 6.5 C100 9.47, 100 12.43, 100 19.5 M100 19.5 C100 23.83, 97.83 26, 93.5 26 M100 19.5 C100 23.83, 97.83 26, 93.5 26 M93.5 26 C75.13 26, 56.77 26, 6.5 26 M93.5 26 C69.93 26, 46.37 26, 6.5 26 M6.5 26 C2.17 26, 0 23.83, 0 19.5 M6.5 26 C2.17 26, 0 23.83, 0 19.5 M0 19.5 C0 14.48, 0 9.47, 0 6.5 M0 19.5 C0 15.85, 0 12.2, 0 6.5 M0 6.5 C0 2.17, 2.17 0, 6.5 0 M0 6.5 C0 2.17, 2.17 0, 6.5 0" stroke="#2E7D32" stroke-width="1" fill="none"></path></g><g transform="translate(373 653.75) rotate(0 46 6.25)"><text x="46" y="8.9501953125" font-family="Helvetica, sans-serif, Segoe UI Emoji" font-size="10px" fill="#2E7D32" text-anchor="middle" style="white-space: pre;" direction="ltr" dominant-baseline="alphabetic">📊 HPA</text></g><g stroke-linecap="round" transform="translate(482 647) rotate(0 55 13)"><path d="M6.5 0 C26.93 0, 47.36 0, 103.5 0 C107.83 0, 110 2.17, 110 6.5 C110 10.04, 110 13.59, 110 19.5 C110 23.83, 107.83 26, 103.5 26 C79.17 26, 54.83 26, 6.5 26 C2.17 26, 0 23.83, 0 19.5 C0 14.7, 0 9.89, 0 6.5 C0 2.17, 2.17 0, 6.5 0" stroke="none" stroke-width="0" fill="#FFFDE7"></path><path d="M6.5 0 C34.89 0, 63.29 0, 103.5 0 M6.5 0 C35.91 0, 65.31 0, 103.5 0 M103.5 0 C107.83 0, 110 2.17, 110 6.5 M103.5 0 C107.83 0, 110 2.17, 110 6.5 M110 6.5 C110 9.9, 110 13.3, 110 19.5 M110 6.5 C110 10.01, 110 13.52, 110 19.5 M110 19.5 C110 23.83, 107.83 26, 103.5 26 M110 19.5 C110 23.83, 107.83 26, 103.5 26 M103.5 26 C81.97 26, 60.43 26, 6.5 26 M103.5 26 C74.65 26, 45.81 26, 6.5 26 M6.5 26 C2.17 26, 0 23.83, 0 19.5 M6.5 26 C2.17 26, 0 23.83, 0 19.5 M0 19.5 C0 16.04, 0 12.59, 0 6.5 M0 19.5 C0 15.33, 0 11.16, 0 6.5 M0 6.5 C0 2.17, 2.17 0, 6.5 0 M0 6.5 C0 2.17, 2.17 0, 6.5 0" stroke="#F57F17" stroke-width="1" fill="none"></path></g><g transform="translate(486 653.75) rotate(0 51 6.25)"><text x="51" y="8.9501953125" font-family="Helvetica, sans-serif, Segoe UI Emoji" font-size="10px" fill="#F57F17" text-anchor="middle" style="white-space: pre;" direction="ltr" dominant-baseline="alphabetic">👤 IRSA</text></g><g stroke-linecap="round" transform="translate(85 703) rotate(0 415 11)"><path d="M5.5 0 C298.94 0, 592.38 0, 824.5 0 C828.17 0, 830 1.83, 830 5.5 C830 8.67, 830 11.84, 830 16.5 C830 20.17, 828.17 22, 824.5 22 C537.69 22, 250.88 22, 5.5 22 C1.83 22, 0 20.17, 0 16.5 C0 13.17, 0 9.83, 0 5.5 C0 1.83, 1.83 0, 5.5 0" stroke="none" stroke-width="0" fill="#ECEFF1"></path><path d="M5.5 0 C205.91 0, 406.33 0, 824.5 0 M5.5 0 C323.52 0, 641.53 0, 824.5 0 M824.5 0 C828.17 0, 830 1.83, 830 5.5 M824.5 0 C828.17 0, 830 1.83, 830 5.5 M830 5.5 C830 9.68, 830 13.87, 830 16.5 M830 5.5 C830 9.74, 830 13.99, 830 16.5 M830 16.5 C830 20.17, 828.17 22, 824.5 22 M830 16.5 C830 20.17, 828.17 22, 824.5 22 M824.5 22 C658.37 22, 492.23 22, 5.5 22 M824.5 22 C570.14 22, 315.77 22, 5.5 22 M5.5 22 C1.83 22, 0 20.17, 0 16.5 M5.5 22 C1.83 22, 0 20.17, 0 16.5 M0 16.5 C0 13.57, 0 10.63, 0 5.5 M0 16.5 C0 12.23, 0 7.97, 0 5.5 M0 5.5 C0 1.83, 1.83 0, 5.5 0 M0 5.5 C0 1.83, 1.83 0, 5.5 0" stroke="#78909C" stroke-width="1" fill="none"></path></g><g transform="translate(95 705) rotate(0 405 9)"><text x="405" y="8.9501953125" font-family="Helvetica, sans-serif, Segoe UI Emoji" font-size="10px" fill="#78909C" text-anchor="middle" style="white-space: pre;" direction="ltr" dominant-baseline="alphabetic">Managed Node Group  ·  m5.large  ·  2–10 nodes  ·  us-east-1a/b</text></g><g stroke-linecap="round" transform="translate(40 765) rotate(0 112.5 34)"><path d="M17 0 C70.46 0, 123.92 0, 208 0 C219.33 0, 225 5.67, 225 17 C225 29.2, 225 41.41, 225 51 C225 62.33, 219.33 68, 208 68 C165.53 68, 123.06 68, 17 68 C5.67 68, 0 62.33, 0 51 C0 42.49, 0 33.98, 0 17 C0 5.67, 5.67 0, 17 0" stroke="none" stroke-width="0" fill="#1864ab"></path><path d="M17 0 C61.45 0, 105.9 0, 208 0 M17 0 C57.77 0, 98.54 0, 208 0 M208 0 C219.33 0, 225 5.67, 225 17 M208 0 C219.33 0, 225 5.67, 225 17 M225 17 C225 30.26, 225 43.52, 225 51 M225 17 C225 30.42, 225 43.83, 225 51 M225 51 C225 62.33, 219.33 68, 208 68 M225 51 C225 62.33, 219.33 68, 208 68 M208 68 C150.8 68, 93.61 68, 17 68 M208 68 C137.53 68, 67.07 68, 17 68 M17 68 C5.67 68, 0 62.33, 0 51 M17 68 C5.67 68, 0 62.33, 0 51 M0 51 C0 37.81, 0 24.62, 0 17 M0 51 C0 39.1, 0 27.2, 0 17 M0 17 C0 5.67, 5.67 0, 17 0 M0 17 C0 5.67, 5.67 0, 17 0" stroke="#1864ab" stroke-width="2" fill="none"></path></g><g transform="translate(50 781.5) rotate(0 102.5 17.5)"><text x="102.5" y="12.5302734375" font-family="Helvetica, sans-serif, Segoe UI Emoji" font-size="14px" fill="#ffffff" text-anchor="middle" style="white-space: pre;" direction="ltr" dominant-baseline="alphabetic">🐘  Amazon RDS</text><text x="102.5" y="30.0302734375" font-family="Helvetica, sans-serif, Segoe UI Emoji" font-size="14px" fill="#ffffff" text-anchor="middle" style="white-space: pre;" direction="ltr" dominant-baseline="alphabetic">PostgreSQL 16</text></g><g stroke-linecap="round" transform="translate(315 765) rotate(0 112.5 34)"><path d="M17 0 C85.13 0, 153.27 0, 208 0 C219.33 0, 225 5.67, 225 17 C225 26.85, 225 36.7, 225 51 C225 62.33, 219.33 68, 208 68 C143.88 68, 79.77 68, 17 68 C5.67 68, 0 62.33, 0 51 C0 40.41, 0 29.82, 0 17 C0 5.67, 5.67 0, 17 0" stroke="none" stroke-width="0" fill="#c92a2a"></path><path d="M17 0 C61.89 0, 106.77 0, 208 0 M17 0 C87.32 0, 157.64 0, 208 0 M208 0 C219.33 0, 225 5.67, 225 17 M208 0 C219.33 0, 225 5.67, 225 17 M225 17 C225 26.78, 225 36.55, 225 51 M225 17 C225 23.96, 225 30.92, 225 51 M225 51 C225 62.33, 219.33 68, 208 68 M225 51 C225 62.33, 219.33 68, 208 68 M208 68 C169.48 68, 130.96 68, 17 68 M208 68 C151.23 68, 94.45 68, 17 68 M17 68 C5.67 68, 0 62.33, 0 51 M17 68 C5.67 68, 0 62.33, 0 51 M0 51 C0 38.21, 0 25.42, 0 17 M0 51 C0 41.06, 0 31.12, 0 17 M0 17 C0 5.67, 5.67 0, 17 0 M0 17 C0 5.67, 5.67 0, 17 0" stroke="#c92a2a" stroke-width="2" fill="none"></path></g><g transform="translate(325 781.5) rotate(0 102.5 17.5)"><text x="102.5" y="12.5302734375" font-family="Helvetica, sans-serif, Segoe UI Emoji" font-size="14px" fill="#ffffff" text-anchor="middle" style="white-space: pre;" direction="ltr" dominant-baseline="alphabetic">⚡  ElastiCache</text><text x="102.5" y="30.0302734375" font-family="Helvetica, sans-serif, Segoe UI Emoji" font-size="14px" fill="#ffffff" text-anchor="middle" style="white-space: pre;" direction="ltr" dominant-baseline="alphabetic">Redis 7</text></g><g stroke-linecap="round" transform="translate(590 765) rotate(0 112.5 34)"><path d="M17 0 C55.21 0, 93.41 0, 208 0 C219.33 0, 225 5.67, 225 17 C225 29.67, 225 42.34, 225 51 C225 62.33, 219.33 68, 208 68 C167.23 68, 126.45 68, 17 68 C5.67 68, 0 62.33, 0 51 C0 41.05, 0 31.11, 0 17 C0 5.67, 5.67 0, 17 0" stroke="none" stroke-width="0" fill="#2b8a3e"></path><path d="M17 0 C65.59 0, 114.18 0, 208 0 M17 0 C64.16 0, 111.32 0, 208 0 M208 0 C219.33 0, 225 5.67, 225 17 M208 0 C219.33 0, 225 5.67, 225 17 M225 17 C225 27.85, 225 38.69, 225 51 M225 17 C225 23.9, 225 30.79, 225 51 M225 51 C225 62.33, 219.33 68, 208 68 M225 51 C225 62.33, 219.33 68, 208 68 M208 68 C152.38 68, 96.77 68, 17 68 M208 68 C157.15 68, 106.3 68, 17 68 M17 68 C5.67 68, 0 62.33, 0 51 M17 68 C5.67 68, 0 62.33, 0 51 M0 51 C0 40.89, 0 30.78, 0 17 M0 51 C0 43.2, 0 35.4, 0 17 M0 17 C0 5.67, 5.67 0, 17 0 M0 17 C0 5.67, 5.67 0, 17 0" stroke="#2b8a3e" stroke-width="2" fill="none"></path></g><g transform="translate(600 781.5) rotate(0 102.5 17.5)"><text x="102.5" y="12.5302734375" font-family="Helvetica, sans-serif, Segoe UI Emoji" font-size="14px" fill="#ffffff" text-anchor="middle" style="white-space: pre;" direction="ltr" dominant-baseline="alphabetic">📦  Amazon S3</text><text x="102.5" y="30.0302734375" font-family="Helvetica, sans-serif, Segoe UI Emoji" font-size="14px" fill="#ffffff" text-anchor="middle" style="white-space: pre;" direction="ltr" dominant-baseline="alphabetic">cadre-artifacts</text></g><g stroke-linecap="round"><g transform="translate(280 729) rotate(0 -64 18)"><path d="M0 0 C-21.33 6, -106.67 30, -128 36" stroke="#1864ab" stroke-width="1.5" fill="none" stroke-dasharray="8 9"></path></g><g transform="translate(280 729) rotate(0 -64 18)"><path d="M-128 36 L-116.63 26.22 L-113.2 38.42 L-128 36" stroke="none" stroke-width="0" fill="#1864ab" fill-rule="evenodd"></path><path d="M-128 36 C-125.72 34.04, -123.44 32.07, -116.63 26.22 M-116.63 26.22 C-115.67 29.64, -114.7 33.07, -113.2 38.42 M-113.2 38.42 C-116.98 37.8, -120.76 37.18, -128 36 M-128 36 C-128 36, -128 36, -128 36" stroke="#1864ab" stroke-width="1.5" fill="none"></path></g></g><mask></mask><g stroke-linecap="round"><g transform="translate(440 729) rotate(0 0 18)"><path d="M0 0 C0 6, 0 30, 0 36" stroke="#c92a2a" stroke-width="1.5" fill="none" stroke-dasharray="8 9"></path></g><g transform="translate(440 729) rotate(0 0 18)"><path d="M0 36 L-6.34 22.41 L6.34 22.41 L0 36" stroke="none" stroke-width="0" fill="#c92a2a" fill-rule="evenodd"></path><path d="M0 36 C-1.44 32.9, -2.89 29.8, -6.34 22.41 M-6.34 22.41 C-3.58 22.41, -0.81 22.41, 6.34 22.41 M6.34 22.41 C3.81 27.83, 1.28 33.26, 0 36 M0 36 C0 36, 0 36, 0 36" stroke="#c92a2a" stroke-width="1.5" fill="none"></path></g></g><mask></mask><g stroke-linecap="round"><g transform="translate(660 729) rotate(0 21 18)"><path d="M0 0 C7 6, 35 30, 42 36" stroke="#2b8a3e" stroke-width="1.5" fill="none" stroke-dasharray="8 9"></path></g><g transform="translate(660 729) rotate(0 21 18)"><path d="M42 36 L27.55 31.97 L35.8 22.34 L42 36" stroke="none" stroke-width="0" fill="#2b8a3e" fill-rule="evenodd"></path><path d="M42 36 C37.17 34.65, 32.33 33.3, 27.55 31.97 M27.55 31.97 C29.57 29.61, 31.6 27.25, 35.8 22.34 M35.8 22.34 C38.11 27.42, 40.41 32.5, 42 36 M42 36 C42 36, 42 36, 42 36" stroke="#2b8a3e" stroke-width="1.5" fill="none"></path></g></g><mask></mask><g transform="translate(1040 327) rotate(0 100 7)"><text x="0" y="9.84521484375" font-family="Helvetica, sans-serif, Segoe UI Emoji" font-size="11px" fill="#868e96" text-anchor="start" style="white-space: pre;" direction="ltr" dominant-baseline="alphabetic">AUTH</text></g><g stroke-linecap="round" transform="translate(1040 345) rotate(0 188 21)"><path d="M10.5 0 C99.09 0, 187.68 0, 365.5 0 C372.5 0, 376 3.5, 376 10.5 C376 18.27, 376 26.05, 376 31.5 C376 38.5, 372.5 42, 365.5 42 C240.16 42, 114.83 42, 10.5 42 C3.5 42, 0 38.5, 0 31.5 C0 26.08, 0 20.67, 0 10.5 C0 3.5, 3.5 0, 10.5 0" stroke="none" stroke-width="0" fill="#24292e"></path><path d="M10.5 0 C90.64 0, 170.77 0, 365.5 0 M10.5 0 C94.23 0, 177.96 0, 365.5 0 M365.5 0 C372.5 0, 376 3.5, 376 10.5 M365.5 0 C372.5 0, 376 3.5, 376 10.5 M376 10.5 C376 17.04, 376 23.58, 376 31.5 M376 10.5 C376 16.39, 376 22.27, 376 31.5 M376 31.5 C376 38.5, 372.5 42, 365.5 42 M376 31.5 C376 38.5, 372.5 42, 365.5 42 M365.5 42 C278.53 42, 191.57 42, 10.5 42 M365.5 42 C248.49 42, 131.47 42, 10.5 42 M10.5 42 C3.5 42, 0 38.5, 0 31.5 M10.5 42 C3.5 42, 0 38.5, 0 31.5 M0 31.5 C0 26.75, 0 22.01, 0 10.5 M0 31.5 C0 24.73, 0 17.97, 0 10.5 M0 10.5 C0 3.5, 3.5 0, 10.5 0 M0 10.5 C0 3.5, 3.5 0, 10.5 0" stroke="#24292e" stroke-width="2" fill="none"></path></g><g transform="translate(1050 357.875) rotate(0 178 8.125)"><text x="178" y="11.63525390625" font-family="Helvetica, sans-serif, Segoe UI Emoji" font-size="13px" fill="#ffffff" text-anchor="middle" style="white-space: pre;" direction="ltr" dominant-baseline="alphabetic">🔑  GitHub OAuth</text></g><g stroke-linecap="round"><g transform="translate(980 366) rotate(0 30 0)"><path d="M0 0 C10 0, 50 0, 60 0" stroke="#24292e" stroke-width="1.5" fill="none" stroke-dasharray="8 9"></path></g><g transform="translate(980 366) rotate(0 30 0)"><path d="M60 0 L46.41 6.34 L46.41 -6.34 L60 0" stroke="none" stroke-width="0" fill="#24292e" fill-rule="evenodd"></path><path d="M60 0 C56.55 1.61, 53.11 3.21, 46.41 6.34 M46.41 6.34 C46.41 2.25, 46.41 -1.83, 46.41 -6.34 M46.41 -6.34 C51 -4.19, 55.6 -2.05, 60 0 M60 0 C60 0, 60 0, 60 0" stroke="#24292e" stroke-width="1.5" fill="none"></path></g></g><mask></mask><g stroke-linecap="round" transform="translate(1028 411) rotate(0 200 114)"><path d="M32 0 C139.25 0, 246.51 0, 368 0 C389.33 0, 400 10.67, 400 32 C400 70.04, 400 108.08, 400 196 C400 217.33, 389.33 228, 368 228 C276.84 228, 185.67 228, 32 228 C10.67 228, 0 217.33, 0 196 C0 137.33, 0 78.66, 0 32 C0 10.67, 10.67 0, 32 0" stroke="none" stroke-width="0" fill="#FFFCF5"></path><path d="M32 0 C146.21 0, 260.43 0, 368 0 M32 0 C153.5 0, 275 0, 368 0 M368 0 C389.33 0, 400 10.67, 400 32 M368 0 C389.33 0, 400 10.67, 400 32 M400 32 C400 78.46, 400 124.93, 400 196 M400 32 C400 96.54, 400 161.09, 400 196 M400 196 C400 217.33, 389.33 228, 368 228 M400 196 C400 217.33, 389.33 228, 368 228 M368 228 C268.54 228, 169.07 228, 32 228 M368 228 C249.65 228, 131.31 228, 32 228 M32 228 C10.67 228, 0 217.33, 0 196 M32 228 C10.67 228, 0 217.33, 0 196 M0 196 C0 142.72, 0 89.44, 0 32 M0 196 C0 162.71, 0 129.42, 0 32 M0 32 C0 10.67, 10.67 0, 32 0 M0 32 C0 10.67, 10.67 0, 32 0" stroke="#FFE0B2" stroke-width="1" fill="none"></path></g><g transform="translate(1040 421) rotate(0 100 7)"><text x="0" y="9.84521484375" font-family="Helvetica, sans-serif, Segoe UI Emoji" font-size="11px" fill="#868e96" text-anchor="start" style="white-space: pre;" direction="ltr" dominant-baseline="alphabetic">AI PROVIDERS</text></g><g stroke-linecap="round" transform="translate(1040 445) rotate(0 188 20)"><path d="M10 0 C150.5 0, 291 0, 366 0 C372.67 0, 376 3.33, 376 10 C376 15.17, 376 20.35, 376 30 C376 36.67, 372.67 40, 366 40 C248.11 40, 130.21 40, 10 40 C3.33 40, 0 36.67, 0 30 C0 24.97, 0 19.94, 0 10 C0 3.33, 3.33 0, 10 0" stroke="none" stroke-width="0" fill="#b45309"></path><path d="M10 0 C105.45 0, 200.89 0, 366 0 M10 0 C141.41 0, 272.82 0, 366 0 M366 0 C372.67 0, 376 3.33, 376 10 M366 0 C372.67 0, 376 3.33, 376 10 M376 10 C376 14.27, 376 18.54, 376 30 M376 10 C376 15.83, 376 21.66, 376 30 M376 30 C376 36.67, 372.67 40, 366 40 M376 30 C376 36.67, 372.67 40, 366 40 M366 40 C225.83 40, 85.67 40, 10 40 M366 40 C270.93 40, 175.85 40, 10 40 M10 40 C3.33 40, 0 36.67, 0 30 M10 40 C3.33 40, 0 36.67, 0 30 M0 30 C0 24.79, 0 19.58, 0 10 M0 30 C0 25.38, 0 20.76, 0 10 M0 10 C0 3.33, 3.33 0, 10 0 M0 10 C0 3.33, 3.33 0, 10 0" stroke="#b45309" stroke-width="2" fill="none"></path></g><g transform="translate(1050 456.875) rotate(0 178 8.125)"><text x="178" y="11.63525390625" font-family="Helvetica, sans-serif, Segoe UI Emoji" font-size="13px" fill="#ffffff" text-anchor="middle" style="white-space: pre;" direction="ltr" dominant-baseline="alphabetic">🤖  Anthropic · Claude</text></g><g stroke-linecap="round"><g transform="translate(980 465) rotate(0 30 0)"><path d="M0 0 C10 0, 50 0, 60 0" stroke="#b45309" stroke-width="1.5" fill="none" stroke-dasharray="8 9"></path></g><g transform="translate(980 465) rotate(0 30 0)"><path d="M60 0 L46.41 6.34 L46.41 -6.34 L60 0" stroke="none" stroke-width="0" fill="#b45309" fill-rule="evenodd"></path><path d="M60 0 C55.04 2.31, 50.08 4.62, 46.41 6.34 M46.41 6.34 C46.41 1.38, 46.41 -3.59, 46.41 -6.34 M46.41 -6.34 C49.99 -4.67, 53.58 -2.99, 60 0 M60 0 C60 0, 60 0, 60 0" stroke="#b45309" stroke-width="1.5" fill="none"></path></g></g><mask></mask><g stroke-linecap="round" transform="translate(1040 493) rotate(0 188 20)"><path d="M10 0 C125.26 0, 240.52 0, 366 0 C372.67 0, 376 3.33, 376 10 C376 16.32, 376 22.64, 376 30 C376 36.67, 372.67 40, 366 40 C234.43 40, 102.85 40, 10 40 C3.33 40, 0 36.67, 0 30 C0 25.7, 0 21.41, 0 10 C0 3.33, 3.33 0, 10 0" stroke="none" stroke-width="0" fill="#087f5b"></path><path d="M10 0 C99.82 0, 189.63 0, 366 0 M10 0 C127.59 0, 245.18 0, 366 0 M366 0 C372.67 0, 376 3.33, 376 10 M366 0 C372.67 0, 376 3.33, 376 10 M376 10 C376 17.74, 376 25.47, 376 30 M376 10 C376 17.61, 376 25.22, 376 30 M376 30 C376 36.67, 372.67 40, 366 40 M376 30 C376 36.67, 372.67 40, 366 40 M366 40 C266.99 40, 167.98 40, 10 40 M366 40 C283.42 40, 200.83 40, 10 40 M10 40 C3.33 40, 0 36.67, 0 30 M10 40 C3.33 40, 0 36.67, 0 30 M0 30 C0 24.51, 0 19.03, 0 10 M0 30 C0 22.96, 0 15.93, 0 10 M0 10 C0 3.33, 3.33 0, 10 0 M0 10 C0 3.33, 3.33 0, 10 0" stroke="#087f5b" stroke-width="2" fill="none"></path></g><g transform="translate(1050 504.875) rotate(0 178 8.125)"><text x="178" y="11.63525390625" font-family="Helvetica, sans-serif, Segoe UI Emoji" font-size="13px" fill="#ffffff" text-anchor="middle" style="white-space: pre;" direction="ltr" dominant-baseline="alphabetic">🧠  OpenAI · GPT-4o</text></g><g stroke-linecap="round"><g transform="translate(980 513) rotate(0 30 0)"><path d="M0 0 C10 0, 50 0, 60 0" stroke="#087f5b" stroke-width="1.5" fill="none" stroke-dasharray="8 9"></path></g><g transform="translate(980 513) rotate(0 30 0)"><path d="M60 0 L46.41 6.34 L46.41 -6.34 L60 0" stroke="none" stroke-width="0" fill="#087f5b" fill-rule="evenodd"></path><path d="M60 0 C56.14 1.8, 52.28 3.6, 46.41 6.34 M46.41 6.34 C46.41 3.55, 46.41 0.76, 46.41 -6.34 M46.41 -6.34 C51.16 -4.12, 55.92 -1.9, 60 0 M60 0 C60 0, 60 0, 60 0" stroke="#087f5b" stroke-width="1.5" fill="none"></path></g></g><mask></mask><g stroke-linecap="round" transform="translate(1040 541) rotate(0 188 20)"><path d="M10 0 C131 0, 251.99 0, 366 0 C372.67 0, 376 3.33, 376 10 C376 15.86, 376 21.72, 376 30 C376 36.67, 372.67 40, 366 40 C246.79 40, 127.57 40, 10 40 C3.33 40, 0 36.67, 0 30 C0 24.97, 0 19.93, 0 10 C0 3.33, 3.33 0, 10 0" stroke="none" stroke-width="0" fill="#e03131"></path><path d="M10 0 C114.16 0, 218.32 0, 366 0 M10 0 C97.86 0, 185.72 0, 366 0 M366 0 C372.67 0, 376 3.33, 376 10 M366 0 C372.67 0, 376 3.33, 376 10 M376 10 C376 14.39, 376 18.77, 376 30 M376 10 C376 16.69, 376 23.38, 376 30 M376 30 C376 36.67, 372.67 40, 366 40 M376 30 C376 36.67, 372.67 40, 366 40 M366 40 C244.29 40, 122.59 40, 10 40 M366 40 C280.05 40, 194.1 40, 10 40 M10 40 C3.33 40, 0 36.67, 0 30 M10 40 C3.33 40, 0 36.67, 0 30 M0 30 C0 25.13, 0 20.26, 0 10 M0 30 C0 23.88, 0 17.76, 0 10 M0 10 C0 3.33, 3.33 0, 10 0 M0 10 C0 3.33, 3.33 0, 10 0" stroke="#e03131" stroke-width="2" fill="none"></path></g><g transform="translate(1050 552.875) rotate(0 178 8.125)"><text x="178" y="11.63525390625" font-family="Helvetica, sans-serif, Segoe UI Emoji" font-size="13px" fill="#ffffff" text-anchor="middle" style="white-space: pre;" direction="ltr" dominant-baseline="alphabetic">⚡  Groq · Llama</text></g><g stroke-linecap="round"><g transform="translate(980 561) rotate(0 30 0)"><path d="M0 0 C10 0, 50 0, 60 0" stroke="#e03131" stroke-width="1.5" fill="none" stroke-dasharray="8 9"></path></g><g transform="translate(980 561) rotate(0 30 0)"><path d="M60 0 L46.41 6.34 L46.41 -6.34 L60 0" stroke="none" stroke-width="0" fill="#e03131" fill-rule="evenodd"></path><path d="M60 0 C56.82 1.48, 53.64 2.97, 46.41 6.34 M46.41 6.34 C46.41 2.37, 46.41 -1.61, 46.41 -6.34 M46.41 -6.34 C50.48 -4.44, 54.55 -2.54, 60 0 M60 0 C60 0, 60 0, 60 0" stroke="#e03131" stroke-width="1.5" fill="none"></path></g></g><mask></mask><g stroke-linecap="round" transform="translate(1040 589) rotate(0 188 20)"><path d="M10 0 C104.54 0, 199.08 0, 366 0 C372.67 0, 376 3.33, 376 10 C376 14.57, 376 19.13, 376 30 C376 36.67, 372.67 40, 366 40 C241.07 40, 116.13 40, 10 40 C3.33 40, 0 36.67, 0 30 C0 23.09, 0 16.18, 0 10 C0 3.33, 3.33 0, 10 0" stroke="none" stroke-width="0" fill="#d9480f"></path><path d="M10 0 C144.7 0, 279.4 0, 366 0 M10 0 C145.88 0, 281.77 0, 366 0 M366 0 C372.67 0, 376 3.33, 376 10 M366 0 C372.67 0, 376 3.33, 376 10 M376 10 C376 16.08, 376 22.16, 376 30 M376 10 C376 14.37, 376 18.75, 376 30 M376 30 C376 36.67, 372.67 40, 366 40 M376 30 C376 36.67, 372.67 40, 366 40 M366 40 C224.79 40, 83.58 40, 10 40 M366 40 C248.62 40, 131.24 40, 10 40 M10 40 C3.33 40, 0 36.67, 0 30 M10 40 C3.33 40, 0 36.67, 0 30 M0 30 C0 23.22, 0 16.43, 0 10 M0 30 C0 24.41, 0 18.82, 0 10 M0 10 C0 3.33, 3.33 0, 10 0 M0 10 C0 3.33, 3.33 0, 10 0" stroke="#d9480f" stroke-width="2" fill="none"></path></g><g transform="translate(1050 600.875) rotate(0 178 8.125)"><text x="178" y="11.63525390625" font-family="Helvetica, sans-serif, Segoe UI Emoji" font-size="13px" fill="#ffffff" text-anchor="middle" style="white-space: pre;" direction="ltr" dominant-baseline="alphabetic">☁️  Bedrock · Claude/Nova</text></g><g stroke-linecap="round"><g transform="translate(980 609) rotate(0 30 0)"><path d="M0 0 C10 0, 50 0, 60 0" stroke="#d9480f" stroke-width="1.5" fill="none" stroke-dasharray="8 9"></path></g><g transform="translate(980 609) rotate(0 30 0)"><path d="M60 0 L46.41 6.34 L46.41 -6.34 L60 0" stroke="none" stroke-width="0" fill="#d9480f" fill-rule="evenodd"></path><path d="M60 0 C56.31 1.72, 52.63 3.44, 46.41 6.34 M46.41 6.34 C46.41 2.69, 46.41 -0.97, 46.41 -6.34 M46.41 -6.34 C49.47 -4.91, 52.54 -3.48, 60 0 M60 0 C60 0, 60 0, 60 0" stroke="#d9480f" stroke-width="1.5" fill="none"></path></g></g><mask></mask><g stroke-linecap="round" transform="translate(1028 663) rotate(0 200 129)"><path d="M32 0 C138.6 0, 245.2 0, 368 0 C389.33 0, 400 10.67, 400 32 C400 78.71, 400 125.41, 400 226 C400 247.33, 389.33 258, 368 258 C280.32 258, 192.64 258, 32 258 C10.67 258, 0 247.33, 0 226 C0 180.96, 0 135.92, 0 32 C0 10.67, 10.67 0, 32 0" stroke="none" stroke-width="0" fill="#F4F6FB"></path><path d="M32 0 C113 0, 194.01 0, 368 0 M32 0 C112.68 0, 193.37 0, 368 0 M368 0 C389.33 0, 400 10.67, 400 32 M368 0 C389.33 0, 400 10.67, 400 32 M400 32 C400 92.31, 400 152.62, 400 226 M400 32 C400 104.99, 400 177.98, 400 226 M400 226 C400 247.33, 389.33 258, 368 258 M400 226 C400 247.33, 389.33 258, 368 258 M368 258 C251.13 258, 134.27 258, 32 258 M368 258 C275.53 258, 183.07 258, 32 258 M32 258 C10.67 258, 0 247.33, 0 226 M32 258 C10.67 258, 0 247.33, 0 226 M0 226 C0 163.08, 0 100.16, 0 32 M0 226 C0 172.33, 0 118.65, 0 32 M0 32 C0 10.67, 10.67 0, 32 0 M0 32 C0 10.67, 10.67 0, 32 0" stroke="#C5CAE9" stroke-width="1" fill="none"></path></g><g transform="translate(1040 673) rotate(0 100 7)"><text x="0" y="9.84521484375" font-family="Helvetica, sans-serif, Segoe UI Emoji" font-size="11px" fill="#868e96" text-anchor="start" style="white-space: pre;" direction="ltr" dominant-baseline="alphabetic">INTEGRATIONS</text></g><g stroke-linecap="round" transform="translate(1040 693) rotate(0 90.5 18)"><path d="M9 0 C49.81 0, 90.62 0, 172 0 C178 0, 181 3, 181 9 C181 14.89, 181 20.79, 181 27 C181 33, 178 36, 172 36 C111.59 36, 51.17 36, 9 36 C3 36, 0 33, 0 27 C0 22.15, 0 17.3, 0 9 C0 3, 3 0, 9 0" stroke="none" stroke-width="0" fill="#24292e"></path><path d="M9 0 C62.33 0, 115.66 0, 172 0 M9 0 C52.95 0, 96.9 0, 172 0 M172 0 C178 0, 181 3, 181 9 M172 0 C178 0, 181 3, 181 9 M181 9 C181 14.13, 181 19.26, 181 27 M181 9 C181 12.93, 181 16.85, 181 27 M181 27 C181 33, 178 36, 172 36 M181 27 C181 33, 178 36, 172 36 M172 36 C113.04 36, 54.09 36, 9 36 M172 36 C123.14 36, 74.28 36, 9 36 M9 36 C3 36, 0 33, 0 27 M9 36 C3 36, 0 33, 0 27 M0 27 C0 20.57, 0 14.13, 0 9 M0 27 C0 22.75, 0 18.49, 0 9 M0 9 C0 3, 3 0, 9 0 M0 9 C0 3, 3 0, 9 0" stroke="#24292e" stroke-width="2" fill="none"></path></g><g transform="translate(1050 703.5) rotate(0 80.5 7.5)"><text x="80.5" y="10.740234375" font-family="Helvetica, sans-serif, Segoe UI Emoji" font-size="12px" fill="#ffffff" text-anchor="middle" style="white-space: pre;" direction="ltr" dominant-baseline="alphabetic">🐙  GitHub</text></g><g stroke-linecap="round" transform="translate(1040 737) rotate(0 90.5 18)"><path d="M9 0 C58.57 0, 108.14 0, 172 0 C178 0, 181 3, 181 9 C181 15.78, 181 22.56, 181 27 C181 33, 178 36, 172 36 C118.88 36, 65.76 36, 9 36 C3 36, 0 33, 0 27 C0 23.25, 0 19.51, 0 9 C0 3, 3 0, 9 0" stroke="none" stroke-width="0" fill="#5c5fc7"></path><path d="M9 0 C56.75 0, 104.5 0, 172 0 M9 0 C47.36 0, 85.72 0, 172 0 M172 0 C178 0, 181 3, 181 9 M172 0 C178 0, 181 3, 181 9 M181 9 C181 13.4, 181 17.79, 181 27 M181 9 C181 14.11, 181 19.21, 181 27 M181 27 C181 33, 178 36, 172 36 M181 27 C181 33, 178 36, 172 36 M172 36 C123.97 36, 75.95 36, 9 36 M172 36 C115.68 36, 59.36 36, 9 36 M9 36 C3 36, 0 33, 0 27 M9 36 C3 36, 0 33, 0 27 M0 27 C0 23, 0 19, 0 9 M0 27 C0 23.03, 0 19.06, 0 9 M0 9 C0 3, 3 0, 9 0 M0 9 C0 3, 3 0, 9 0" stroke="#5c5fc7" stroke-width="2" fill="none"></path></g><g transform="translate(1050 747.5) rotate(0 80.5 7.5)"><text x="80.5" y="10.740234375" font-family="Helvetica, sans-serif, Segoe UI Emoji" font-size="12px" fill="#ffffff" text-anchor="middle" style="white-space: pre;" direction="ltr" dominant-baseline="alphabetic">📋  Linear</text></g><g stroke-linecap="round" transform="translate(1040 781) rotate(0 90.5 18)"><path d="M9 0 C65.93 0, 122.86 0, 172 0 C178 0, 181 3, 181 9 C181 12.72, 181 16.45, 181 27 C181 33, 178 36, 172 36 C121.42 36, 70.83 36, 9 36 C3 36, 0 33, 0 27 C0 22.88, 0 18.75, 0 9 C0 3, 3 0, 9 0" stroke="none" stroke-width="0" fill="#37352F"></path><path d="M9 0 C47.16 0, 85.31 0, 172 0 M9 0 C59.76 0, 110.52 0, 172 0 M172 0 C178 0, 181 3, 181 9 M172 0 C178 0, 181 3, 181 9 M181 9 C181 13.68, 181 18.36, 181 27 M181 9 C181 14.84, 181 20.68, 181 27 M181 27 C181 33, 178 36, 172 36 M181 27 C181 33, 178 36, 172 36 M172 36 C107.6 36, 43.19 36, 9 36 M172 36 C119.68 36, 67.36 36, 9 36 M9 36 C3 36, 0 33, 0 27 M9 36 C3 36, 0 33, 0 27 M0 27 C0 23.31, 0 19.62, 0 9 M0 27 C0 20.01, 0 13.02, 0 9 M0 9 C0 3, 3 0, 9 0 M0 9 C0 3, 3 0, 9 0" stroke="#37352F" stroke-width="2" fill="none"></path></g><g transform="translate(1050 791.5) rotate(0 80.5 7.5)"><text x="80.5" y="10.740234375" font-family="Helvetica, sans-serif, Segoe UI Emoji" font-size="12px" fill="#ffffff" text-anchor="middle" style="white-space: pre;" direction="ltr" dominant-baseline="alphabetic">📝  Notion</text></g><g stroke-linecap="round" transform="translate(1040 825) rotate(0 90.5 18)"><path d="M9 0 C68.42 0, 127.84 0, 172 0 C178 0, 181 3, 181 9 C181 13.08, 181 17.16, 181 27 C181 33, 178 36, 172 36 C119.97 36, 67.94 36, 9 36 C3 36, 0 33, 0 27 C0 23.39, 0 19.79, 0 9 C0 3, 3 0, 9 0" stroke="none" stroke-width="0" fill="#611f69"></path><path d="M9 0 C67.73 0, 126.46 0, 172 0 M9 0 C53.16 0, 97.32 0, 172 0 M172 0 C178 0, 181 3, 181 9 M172 0 C178 0, 181 3, 181 9 M181 9 C181 14.68, 181 20.36, 181 27 M181 9 C181 14.86, 181 20.72, 181 27 M181 27 C181 33, 178 36, 172 36 M181 27 C181 33, 178 36, 172 36 M172 36 C137.2 36, 102.4 36, 9 36 M172 36 C116.15 36, 60.31 36, 9 36 M9 36 C3 36, 0 33, 0 27 M9 36 C3 36, 0 33, 0 27 M0 27 C0 21.39, 0 15.79, 0 9 M0 27 C0 20.71, 0 14.42, 0 9 M0 9 C0 3, 3 0, 9 0 M0 9 C0 3, 3 0, 9 0" stroke="#611f69" stroke-width="2" fill="none"></path></g><g transform="translate(1050 835.5) rotate(0 80.5 7.5)"><text x="80.5" y="10.740234375" font-family="Helvetica, sans-serif, Segoe UI Emoji" font-size="12px" fill="#ffffff" text-anchor="middle" style="white-space: pre;" direction="ltr" dominant-baseline="alphabetic">💬  Slack</text></g><g stroke-linecap="round" transform="translate(1040 869) rotate(0 90.5 18)"><path d="M9 0 C52.45 0, 95.89 0, 172 0 C178 0, 181 3, 181 9 C181 16.2, 181 23.39, 181 27 C181 33, 178 36, 172 36 C119.9 36, 67.79 36, 9 36 C3 36, 0 33, 0 27 C0 23.02, 0 19.03, 0 9 C0 3, 3 0, 9 0" stroke="none" stroke-width="0" fill="#A259FF"></path><path d="M9 0 C67.57 0, 126.13 0, 172 0 M9 0 C69.39 0, 129.78 0, 172 0 M172 0 C178 0, 181 3, 181 9 M172 0 C178 0, 181 3, 181 9 M181 9 C181 13.38, 181 17.76, 181 27 M181 9 C181 13.89, 181 18.78, 181 27 M181 27 C181 33, 178 36, 172 36 M181 27 C181 33, 178 36, 172 36 M172 36 C124.61 36, 77.22 36, 9 36 M172 36 C124.42 36, 76.85 36, 9 36 M9 36 C3 36, 0 33, 0 27 M9 36 C3 36, 0 33, 0 27 M0 27 C0 20.77, 0 14.55, 0 9 M0 27 C0 20.48, 0 13.96, 0 9 M0 9 C0 3, 3 0, 9 0 M0 9 C0 3, 3 0, 9 0" stroke="#A259FF" stroke-width="2" fill="none"></path></g><g transform="translate(1050 879.5) rotate(0 80.5 7.5)"><text x="80.5" y="10.740234375" font-family="Helvetica, sans-serif, Segoe UI Emoji" font-size="12px" fill="#ffffff" text-anchor="middle" style="white-space: pre;" direction="ltr" dominant-baseline="alphabetic">🎨  Figma</text></g><g stroke-linecap="round" transform="translate(1235 693) rotate(0 90.5 18)"><path d="M9 0 C55.58 0, 102.16 0, 172 0 C178 0, 181 3, 181 9 C181 14.69, 181 20.38, 181 27 C181 33, 178 36, 172 36 C115.75 36, 59.5 36, 9 36 C3 36, 0 33, 0 27 C0 22.46, 0 17.92, 0 9 C0 3, 3 0, 9 0" stroke="none" stroke-width="0" fill="#0052CC"></path><path d="M9 0 C74.14 0, 139.28 0, 172 0 M9 0 C43.47 0, 77.95 0, 172 0 M172 0 C178 0, 181 3, 181 9 M172 0 C178 0, 181 3, 181 9 M181 9 C181 15.29, 181 21.58, 181 27 M181 9 C181 14.16, 181 19.33, 181 27 M181 27 C181 33, 178 36, 172 36 M181 27 C181 33, 178 36, 172 36 M172 36 C114.03 36, 56.06 36, 9 36 M172 36 C127.1 36, 82.2 36, 9 36 M9 36 C3 36, 0 33, 0 27 M9 36 C3 36, 0 33, 0 27 M0 27 C0 22.11, 0 17.23, 0 9 M0 27 C0 22.9, 0 18.81, 0 9 M0 9 C0 3, 3 0, 9 0 M0 9 C0 3, 3 0, 9 0" stroke="#0052CC" stroke-width="2" fill="none"></path></g><g transform="translate(1245 703.5) rotate(0 80.5 7.5)"><text x="80.5" y="10.740234375" font-family="Helvetica, sans-serif, Segoe UI Emoji" font-size="12px" fill="#ffffff" text-anchor="middle" style="white-space: pre;" direction="ltr" dominant-baseline="alphabetic">📍  Jira</text></g><g stroke-linecap="round" transform="translate(1235 737) rotate(0 90.5 18)"><path d="M9 0 C53.44 0, 97.88 0, 172 0 C178 0, 181 3, 181 9 C181 14.97, 181 20.95, 181 27 C181 33, 178 36, 172 36 C116.63 36, 61.26 36, 9 36 C3 36, 0 33, 0 27 C0 19.96, 0 12.92, 0 9 C0 3, 3 0, 9 0" stroke="none" stroke-width="0" fill="#1868DB"></path><path d="M9 0 C46.33 0, 83.66 0, 172 0 M9 0 C61.24 0, 113.48 0, 172 0 M172 0 C178 0, 181 3, 181 9 M172 0 C178 0, 181 3, 181 9 M181 9 C181 14.64, 181 20.27, 181 27 M181 9 C181 14.71, 181 20.41, 181 27 M181 27 C181 33, 178 36, 172 36 M181 27 C181 33, 178 36, 172 36 M172 36 C115.93 36, 59.86 36, 9 36 M172 36 C123.98 36, 75.96 36, 9 36 M9 36 C3 36, 0 33, 0 27 M9 36 C3 36, 0 33, 0 27 M0 27 C0 20.67, 0 14.35, 0 9 M0 27 C0 22.27, 0 17.54, 0 9 M0 9 C0 3, 3 0, 9 0 M0 9 C0 3, 3 0, 9 0" stroke="#1868DB" stroke-width="2" fill="none"></path></g><g transform="translate(1245 747.5) rotate(0 80.5 7.5)"><text x="80.5" y="10.740234375" font-family="Helvetica, sans-serif, Segoe UI Emoji" font-size="12px" fill="#ffffff" text-anchor="middle" style="white-space: pre;" direction="ltr" dominant-baseline="alphabetic">📘  Confluence</text></g><g stroke-linecap="round" transform="translate(1235 781) rotate(0 90.5 18)"><path d="M9 0 C52.28 0, 95.56 0, 172 0 C178 0, 181 3, 181 9 C181 13.73, 181 18.46, 181 27 C181 33, 178 36, 172 36 C114.9 36, 57.79 36, 9 36 C3 36, 0 33, 0 27 C0 23.32, 0 19.64, 0 9 C0 3, 3 0, 9 0" stroke="none" stroke-width="0" fill="#4285F4"></path><path d="M9 0 C71.82 0, 134.64 0, 172 0 M9 0 C73.53 0, 138.06 0, 172 0 M172 0 C178 0, 181 3, 181 9 M172 0 C178 0, 181 3, 181 9 M181 9 C181 12.99, 181 16.97, 181 27 M181 9 C181 14.26, 181 19.51, 181 27 M181 27 C181 33, 178 36, 172 36 M181 27 C181 33, 178 36, 172 36 M172 36 C127.22 36, 82.45 36, 9 36 M172 36 C132.95 36, 93.9 36, 9 36 M9 36 C3 36, 0 33, 0 27 M9 36 C3 36, 0 33, 0 27 M0 27 C0 20.2, 0 13.4, 0 9 M0 27 C0 23.12, 0 19.24, 0 9 M0 9 C0 3, 3 0, 9 0 M0 9 C0 3, 3 0, 9 0" stroke="#4285F4" stroke-width="2" fill="none"></path></g><g transform="translate(1245 791.5) rotate(0 80.5 7.5)"><text x="80.5" y="10.740234375" font-family="Helvetica, sans-serif, Segoe UI Emoji" font-size="12px" fill="#ffffff" text-anchor="middle" style="white-space: pre;" direction="ltr" dominant-baseline="alphabetic">📄  Google Docs</text></g><g stroke-linecap="round" transform="translate(1235 825) rotate(0 90.5 18)"><path d="M9 0 C69.49 0, 129.98 0, 172 0 C178 0, 181 3, 181 9 C181 15.91, 181 22.82, 181 27 C181 33, 178 36, 172 36 C124.68 36, 77.37 36, 9 36 C3 36, 0 33, 0 27 C0 21.46, 0 15.91, 0 9 C0 3, 3 0, 9 0" stroke="none" stroke-width="0" fill="#625DF5"></path><path d="M9 0 C66.01 0, 123.03 0, 172 0 M9 0 C72.47 0, 135.94 0, 172 0 M172 0 C178 0, 181 3, 181 9 M172 0 C178 0, 181 3, 181 9 M181 9 C181 15.88, 181 22.76, 181 27 M181 9 C181 14.83, 181 20.67, 181 27 M181 27 C181 33, 178 36, 172 36 M181 27 C181 33, 178 36, 172 36 M172 36 C130.08 36, 88.16 36, 9 36 M172 36 C134 36, 96.01 36, 9 36 M9 36 C3 36, 0 33, 0 27 M9 36 C3 36, 0 33, 0 27 M0 27 C0 21.49, 0 15.99, 0 9 M0 27 C0 20.49, 0 13.99, 0 9 M0 9 C0 3, 3 0, 9 0 M0 9 C0 3, 3 0, 9 0" stroke="#625DF5" stroke-width="2" fill="none"></path></g><g transform="translate(1245 835.5) rotate(0 80.5 7.5)"><text x="80.5" y="10.740234375" font-family="Helvetica, sans-serif, Segoe UI Emoji" font-size="12px" fill="#ffffff" text-anchor="middle" style="white-space: pre;" direction="ltr" dominant-baseline="alphabetic">🎬  Loom</text></g><g stroke-linecap="round" transform="translate(1235 869) rotate(0 90.5 18)"><path d="M9 0 C44.62 0, 80.25 0, 172 0 C178 0, 181 3, 181 9 C181 13.53, 181 18.06, 181 27 C181 33, 178 36, 172 36 C131.18 36, 90.35 36, 9 36 C3 36, 0 33, 0 27 C0 21.34, 0 15.69, 0 9 C0 3, 3 0, 9 0" stroke="none" stroke-width="0" fill="#F46A54"></path><path d="M9 0 C60.24 0, 111.48 0, 172 0 M9 0 C65.8 0, 122.59 0, 172 0 M172 0 C178 0, 181 3, 181 9 M172 0 C178 0, 181 3, 181 9 M181 9 C181 13.12, 181 17.25, 181 27 M181 9 C181 15.84, 181 22.67, 181 27 M181 27 C181 33, 178 36, 172 36 M181 27 C181 33, 178 36, 172 36 M172 36 C123.72 36, 75.44 36, 9 36 M172 36 C115.57 36, 59.13 36, 9 36 M9 36 C3 36, 0 33, 0 27 M9 36 C3 36, 0 33, 0 27 M0 27 C0 22.43, 0 17.86, 0 9 M0 27 C0 23.32, 0 19.65, 0 9 M0 9 C0 3, 3 0, 9 0 M0 9 C0 3, 3 0, 9 0" stroke="#F46A54" stroke-width="2" fill="none"></path></g><g transform="translate(1245 879.5) rotate(0 80.5 7.5)"><text x="80.5" y="10.740234375" font-family="Helvetica, sans-serif, Segoe UI Emoji" font-size="12px" fill="#ffffff" text-anchor="middle" style="white-space: pre;" direction="ltr" dominant-baseline="alphabetic">📒  Coda</text></g><g stroke-linecap="round"><g transform="translate(990 777) rotate(0 19 0)"><path d="M0 0 C6.33 0, 31.67 0, 38 0" stroke="#5c6bc0" stroke-width="2" fill="none" stroke-dasharray="8 9.5"></path></g><g transform="translate(990 777) rotate(0 19 0)"><path d="M38 0 L24.41 6.34 L24.41 -6.34 L38 0" stroke="none" stroke-width="0" fill="#5c6bc0" fill-rule="evenodd"></path><path d="M38 0 C32.77 2.44, 27.54 4.88, 24.41 6.34 M24.41 6.34 C24.41 3.52, 24.41 0.7, 24.41 -6.34 M24.41 -6.34 C29.72 -3.86, 35.04 -1.38, 38 0 M38 0 C38 0, 38 0, 38 0" stroke="#5c6bc0" stroke-width="2" fill="none"></path></g></g><mask></mask><g transform="translate(996 763) rotate(0 25 6)"><text x="0" y="8.05517578125" font-family="Helvetica, sans-serif, Segoe UI Emoji" font-size="9px" fill="#9e9e9e" text-anchor="start" style="white-space: pre;" direction="ltr" dominant-baseline="alphabetic">API calls</text></g><g stroke-linecap="round"><g transform="translate(1028 683) rotate(0 -211.5 -159)"><path d="M0 0 C-70.5 -53, -352.5 -265, -423 -318" stroke="#EF6C00" stroke-width="2" fill="none" stroke-dasharray="8 9.5"></path></g><g transform="translate(1028 683) rotate(0 -211.5 -159)"><path d="M-423 -318 L-408.32 -314.9 L-415.94 -304.76 L-423 -318" stroke="none" stroke-width="0" fill="#EF6C00" fill-rule="evenodd"></path><path d="M-423 -318 C-418.21 -316.99, -413.41 -315.97, -408.32 -314.9 M-408.32 -314.9 C-410.65 -311.81, -412.97 -308.71, -415.94 -304.76 M-415.94 -304.76 C-417.89 -308.42, -419.84 -312.08, -423 -318 M-423 -318 C-423 -318, -423 -318, -423 -318" stroke="#EF6C00" stroke-width="2" fill="none"></path></g></g><mask></mask><g transform="translate(826 516) rotate(0 40 12)"><text x="40" y="8.05517578125" font-family="Helvetica, sans-serif, Segoe UI Emoji" font-size="9px" fill="#EF6C00" text-anchor="middle" style="white-space: pre;" direction="ltr" dominant-baseline="alphabetic">webhooks</text><text x="40" y="19.30517578125" font-family="Helvetica, sans-serif, Segoe UI Emoji" font-size="9px" fill="#EF6C00" text-anchor="middle" style="white-space: pre;" direction="ltr" dominant-baseline="alphabetic">/api/webhooks/*</text></g></svg>